# xmcd
#
# Track frame offsets:
#	150
#	27042
#	46707
#	61505
#	82210
#	108601
#	124246
#	140573
#	159176
#	177303
#	193823
#	212958
#	232193
#	250311
#
# Disc length: 3577 seconds
#
# Revision: 1
# Processed by: cddbd v1.5.1PL2 Copyright (c) Steve Scherf et al.
# Submitted via: audiograbber 1.83.01
#
DISCID=c60df70e
DTITLE=Wolfgang Ziegler - Verführ mich
DYEAR=1900
DGENRE=
TTITLE0=Verdammt
TTITLE1=Verführ mich
TTITLE2=Uralt
TTITLE3=Da schlug die Flamme
TTITLE4=Es gibt für mich kein fremdes Leid
TTITLE5=Das Spiel
TTITLE6=Alles nur weil ich dich Lieb
TTITLE7=Frauen und Männer
TTITLE8=In Angies Augen
TTITLE9=Hass mich wenn du kannst
TTITLE10=Wie Tief ist zu tief
TTITLE11=Weil ich dich liebe
TTITLE12=Du fehlst mir sehr
TTITLE13=Verdammt (Remix)
EXTD=
EXTT0=
EXTT1=
EXTT2=
EXTT3=
EXTT4=
EXTT5=
EXTT6=
EXTT7=
EXTT8=
EXTT9=
EXTT10=
EXTT11=
EXTT12=
EXTT13=
PLAYORDER=
